<?xml version="1.0" encoding="UTF-8" standalone="no"?>
<svg
   xmlns:dc="http://purl.org/dc/elements/1.1/"
   xmlns:cc="http://creativecommons.org/ns#"
   xmlns:rdf="http://www.w3.org/1999/02/22-rdf-syntax-ns#"
   xmlns:svg="http://www.w3.org/2000/svg"
   xmlns="http://www.w3.org/2000/svg"
   xmlns:sodipodi="http://sodipodi.sourceforge.net/DTD/sodipodi-0.dtd"
   xmlns:inkscape="http://www.inkscape.org/namespaces/inkscape"
   enable-background="new 0 0 128 128"
   height="128px"
   id="Layer_1"
   version="1.1"
   viewBox="0 0 128 128"
   width="128px"
   xml:space="preserve"
   inkscape:version="0.48.4 r9939"
   sodipodi:docname="1445628968_Exit.svg"><metadata
     id="metadata17"><rdf:RDF><cc:Work
         rdf:about=""><dc:format>image/svg+xml</dc:format><dc:type
           rdf:resource="http://purl.org/dc/dcmitype/StillImage" /><dc:title></dc:title></cc:Work></rdf:RDF></metadata><defs
     id="defs15" /><sodipodi:namedview
     pagecolor="#ffffff"
     bordercolor="#666666"
     borderopacity="1"
     objecttolerance="10"
     gridtolerance="10"
     guidetolerance="10"
     inkscape:pageopacity="0"
     inkscape:pageshadow="2"
     inkscape:window-width="1325"
     inkscape:window-height="744"
     id="namedview13"
     showgrid="false"
     inkscape:zoom="1.84375"
     inkscape:cx="64"
     inkscape:cy="64"
     inkscape:window-x="41"
     inkscape:window-y="24"
     inkscape:window-maximized="1"
     inkscape:current-layer="Layer_1" /><g
     id="g3"
     transform="matrix(-1,0,0,-1,128,128)"><g
       id="g5"><path
         d="M 120,0 H 24 c -4.422,0 -8,3.582 -8,8 v 22.234 c 2.367,-2.133 5.063,-3.738 8,-4.781 V 8 h 96 V 120 H 24 v -17.453 c -2.938,-1.043 -5.633,-2.648 -8,-4.781 V 120 c 0,4.418 3.578,8 8,8 h 96 c 4.422,0 8,-3.582 8,-8 V 8 c 0,-4.418 -3.578,-8 -8,-8 z"
         id="path7"
         inkscape:connector-curvature="0"
         style="fill:#b0bec5" /></g></g><path
     d="m 96,88 c -2.047,0 -4.094,-0.781 -5.656,-2.344 -3.125,-3.125 -3.125,-8.188 0,-11.313 L 92.687,72 H 64 c -4.422,0 -8,-3.582 -8,-8 0,-4.418 3.578,-8 8,-8 l 28.687,0 -2.344,-2.344 c -3.125,-3.125 -3.125,-8.188 0,-11.313 C 91.906,40.781 93.953,40 96,40 c 2.047,0 4.094,0.781 5.656,2.344 l 16,16 c 3.125,3.125 3.125,8.188 0,11.313 l -16,16 C 100.094,87.219 98.047,88 96,88 m 0,8 c 4.273,0 8.289,-1.664 11.313,-4.688 l 16,-16 C 126.336,72.289 128,68.273 128,64 c 0,-4.273 -1.664,-8.289 -4.688,-11.313 l -16,-16 C 104.289,33.664 100.273,32 96,32 c -4.273,0 -8.289,1.664 -11.313,4.688 -3.117,3.117 -4.68,7.215 -4.68,11.313 l -16.007,0 c -8.82,0 -16,7.176 -16,16 0,8.82 7.18,16 16,16 h 16.008 c 0,4.098 1.563,8.195 4.68,11.313 C 87.711,94.336 91.727,96 96,96 l 0,0 z"
     id="path9"
     inkscape:connector-curvature="0"
     style="fill:#f44336" /><path
     d="m 24,104 0,-80 h 8 l 0,80 h -8 m -8,8 H 40 L 40,16 H 16 l 0,96 0,0 z"
     id="path11"
     inkscape:connector-curvature="0"
     style="fill:#ef9a9a" /></svg>