<?xml version="1.0" encoding="UTF-8" standalone="no"?>
<svg
   xmlns:dc="http://purl.org/dc/elements/1.1/"
   xmlns:cc="http://creativecommons.org/ns#"
   xmlns:rdf="http://www.w3.org/1999/02/22-rdf-syntax-ns#"
   xmlns:svg="http://www.w3.org/2000/svg"
   xmlns="http://www.w3.org/2000/svg"
   xmlns:sodipodi="http://sodipodi.sourceforge.net/DTD/sodipodi-0.dtd"
   xmlns:inkscape="http://www.inkscape.org/namespaces/inkscape"
   style="enable-background:new 0 0 500 500;"
   version="1.1"
   viewBox="0 0 500 500"
   xml:space="preserve"
   id="svg2"
   inkscape:version="0.48.4 r9939"
   width="100%"
   height="100%"
   sodipodi:docname="1cols.svg"><metadata
     id="metadata31"><rdf:RDF><cc:Work
         rdf:about=""><dc:format>image/svg+xml</dc:format><dc:type
           rdf:resource="http://purl.org/dc/dcmitype/StillImage" /><dc:title /></cc:Work></rdf:RDF></metadata><defs
     id="defs29" /><sodipodi:namedview
     pagecolor="#ffffff"
     bordercolor="#666666"
     borderopacity="1"
     objecttolerance="10"
     gridtolerance="10"
     guidetolerance="10"
     inkscape:pageopacity="0"
     inkscape:pageshadow="2"
     inkscape:window-width="1366"
     inkscape:window-height="698"
     id="namedview27"
     showgrid="false"
     inkscape:zoom="0.472"
     inkscape:cx="26.613358"
     inkscape:cy="347.56302"
     inkscape:window-x="0"
     inkscape:window-y="24"
     inkscape:window-maximized="1"
     inkscape:current-layer="g5" /><g
     id="grid-layout-window"><g
       id="g5"><rect
         style="fill:#ffffff;fill-opacity:1"
         id="rect3108"
         width="493.64407"
         height="493.64407"
         x="3.1779633"
         y="3.1779633"
         rx="60"
         ry="60" /><g
         id="_x32_8"><g
           id="g10"
           transform="translate(-32.838983,-5.2966102)"><g
             id="g3059"
             transform="translate(-0.67679986,11.652542)"><g
               transform="translate(0,-6.5811631)"
               id="g3054"><rect
                 height="37.043999"
                 style="fill:#ff931e"
                 width="196.85677"
                 x="175.63371"
                 y="273.242"
                 id="rect18" /><g
                 id="g3051"
                 transform="matrix(1.8505075,0,0,1,-149.37779,0)"><rect
                   id="rect18-4"
                   y="213.46954"
                   x="175.63371"
                   width="94.236389"
                   style="fill:#ff931e"
                   height="37.043999" /></g></g><g
               transform="translate(16.949153,-4.237291)"
               id="g3047"><rect
                 height="37.043999"
                 style="fill:#ff931e"
                 width="94.236389"
                 x="280.21231"
                 y="270.89813"
                 id="rect18-8" /><rect
                 height="37.043999"
                 style="fill:#ff931e"
                 width="94.236389"
                 x="280.21231"
                 y="211.12567"
                 id="rect18-4-1" /></g></g></g><path
           d="M362.771,140.083H137.224c-14.416,0.033-26.091,11.707-26.112,26.118v167.61     c0.021,14.41,11.697,26.096,26.112,26.118h225.548c14.409-0.023,26.096-11.708,26.117-26.118V166.2     C388.867,151.79,377.181,140.115,362.771,140.083z M360.004,156.825c3.277,0,5.936,2.658,5.936,5.935     c0,3.277-2.658,5.935-5.936,5.935c-3.282,0-5.935-2.659-5.935-5.935C354.069,159.483,356.722,156.825,360.004,156.825z      M313.357,157.172h29.189c3.087,0,5.582,2.506,5.582,5.588c0,3.081-2.495,5.578-5.582,5.578h-29.189     c-3.087,0-5.583-2.496-5.583-5.578C307.774,159.679,310.27,157.172,313.357,157.172z M374.647,333.811     c-0.011,6.489-5.393,11.871-11.876,11.871H137.224c-6.478,0-11.855-5.382-11.871-11.871V182.942h249.295V333.811z"
           style="fill:#675F58;"
           id="path24" /></g></g></g><g
     id="Layer_1" /></svg>