<?xml version="1.0" encoding="UTF-8" standalone="no"?>
<svg
   xmlns:dc="http://purl.org/dc/elements/1.1/"
   xmlns:cc="http://creativecommons.org/ns#"
   xmlns:rdf="http://www.w3.org/1999/02/22-rdf-syntax-ns#"
   xmlns:svg="http://www.w3.org/2000/svg"
   xmlns="http://www.w3.org/2000/svg"
   xmlns:sodipodi="http://sodipodi.sourceforge.net/DTD/sodipodi-0.dtd"
   xmlns:inkscape="http://www.inkscape.org/namespaces/inkscape"
   height="100%"
   style="fill-rule:evenodd;stroke-linejoin:round;stroke-miterlimit:1.41420996"
   version="1.1"
   viewBox="0 0 60 60"
   width="100%"
   xml:space="preserve"
   id="svg2"
   inkscape:version="0.48.4 r9939"
   sodipodi:docname="bad.svg"><metadata
     id="metadata15"><rdf:RDF><cc:Work
         rdf:about=""><dc:format>image/svg+xml</dc:format><dc:type
           rdf:resource="http://purl.org/dc/dcmitype/StillImage" /></cc:Work></rdf:RDF></metadata><defs
     id="defs13" /><sodipodi:namedview
     pagecolor="#ffffff"
     bordercolor="#666666"
     borderopacity="1"
     objecttolerance="10"
     gridtolerance="10"
     guidetolerance="10"
     inkscape:pageopacity="0"
     inkscape:pageshadow="2"
     inkscape:window-width="1325"
     inkscape:window-height="744"
     id="namedview11"
     showgrid="false"
     inkscape:zoom="8.05"
     inkscape:cx="33.491203"
     inkscape:cy="24.951882"
     inkscape:window-x="41"
     inkscape:window-y="24"
     inkscape:window-maximized="1"
     inkscape:current-layer="svg2" /><g
     id="g2992"
     transform="matrix(0.05646443,0,0,0.05646443,-2.4370422e-6,56.577356)"><circle
       transform="translate(0,-1002)"
       sodipodi:ry="531.30798"
       sodipodi:rx="531.30798"
       sodipodi:cy="531.30798"
       sodipodi:cx="531.30798"
       style="fill:#25b7d3"
       r="531.30798"
       id="circle6"
       cy="531.30798"
       cx="531.30798"
       d="m 1062.616,531.30798 c 0,293.4333 -237.87472,531.30802 -531.30802,531.30802 C 237.87469,1062.616 0,824.74128 0,531.30798 0,237.87469 237.87469,0 531.30798,0 824.74128,0 1062.616,237.87469 1062.616,531.30798 z" /><path
       inkscape:connector-curvature="0"
       id="path5"
       style="fill:#d03436"
       d="m 531.308,-864.661 388.138,664.672 -776.276,0 388.138,-664.672 z" /><circle
       transform="translate(0,-1002)"
       sodipodi:ry="55.030399"
       sodipodi:rx="55.030399"
       sodipodi:cy="689.74402"
       sodipodi:cx="531.30798"
       id="circle7"
       style="fill:#ffffff"
       r="55.030399"
       cy="689.74402"
       cx="531.30798"
       d="m 586.33838,689.74402 c 0,30.39245 -24.63795,55.0304 -55.0304,55.0304 -30.39245,0 -55.0304,-24.63795 -55.0304,-55.0304 0,-30.39245 24.63795,-55.0304 55.0304,-55.0304 30.39245,0 55.0304,24.63795 55.0304,55.0304 z" /><path
       inkscape:connector-curvature="0"
       id="path9"
       style="fill:#ffffff"
       d="m 572.115,-672.873 c 0,-19.007 -15.407,-34.415 -34.414,-34.415 l -12.786,0 c -19.007,0 -34.414,15.408 -34.414,34.415 l 0,228.327 c 0,19.006 15.407,34.414 34.414,34.414 l 12.786,0 c 19.007,0 34.414,-15.408 34.414,-34.414 l 0,-228.327 z" /></g></svg>