<?xml version="1.0" ?><!DOCTYPE svg  PUBLIC '-//W3C//DTD SVG 1.1//EN'  'http://www.w3.org/Graphics/SVG/1.1/DTD/svg11.dtd'><svg height="100%" style="fill-rule:evenodd;clip-rule:evenodd;stroke-linejoin:round;stroke-miterlimit:1.41421;" version="1.1" viewBox="0 0 1062 1062" width="100%" xml:space="preserve" xmlns="http://www.w3.org/2000/svg" xmlns:xlink="http://www.w3.org/1999/xlink"><circle cx="531.308" cy="531.308" id="circle6" r="531.308" style="fill:rgb(37,183,211);"/><path d="M906.386,251.79C906.386,232.808 890.998,217.421 872.016,217.421L190.6,217.421C171.618,217.421 156.23,232.808 156.23,251.79L156.23,810.826C156.23,829.808 171.618,845.195 190.6,845.195L872.016,845.195C890.998,845.195 906.386,829.808 906.386,810.826L906.386,251.79Z" style="fill:white;"/><path d="M906.386,251.79L906.386,320.662L156.23,320.662L156.23,251.79C156.231,232.808 171.619,217.421 190.6,217.421L872.016,217.421C890.997,217.421 906.385,232.808 906.386,251.79Z" style="fill:rgb(217,214,212);"/><path d="M223.934,235.282C242.579,234.103 258.649,248.262 259.828,266.906C261.007,285.551 246.848,301.621 228.204,302.8C209.559,303.979 193.489,289.821 192.31,271.176C191.131,252.531 205.29,236.461 223.934,235.282Z" style="fill:rgb(245,57,57);"/><path d="M312.326,235.282C330.971,234.103 347.041,248.262 348.22,266.906C349.399,285.551 335.24,301.621 316.595,302.8C297.951,303.979 281.88,289.821 280.701,271.176C279.522,252.531 293.681,236.461 312.326,235.282Z" style="fill:rgb(234,155,56);"/><path d="M400.717,235.282C419.362,234.103 435.432,248.262 436.611,266.906C437.79,285.551 423.632,301.621 404.987,302.8C386.342,303.979 370.272,289.821 369.093,271.176C367.914,252.531 382.073,236.461 400.717,235.282Z" style="fill:rgb(140,198,102);"/></svg>