<?xml version="1.0" encoding="UTF-8" standalone="no"?>
<svg
   xmlns:dc="http://purl.org/dc/elements/1.1/"
   xmlns:cc="http://creativecommons.org/ns#"
   xmlns:rdf="http://www.w3.org/1999/02/22-rdf-syntax-ns#"
   xmlns:svg="http://www.w3.org/2000/svg"
   xmlns="http://www.w3.org/2000/svg"
   xmlns:sodipodi="http://sodipodi.sourceforge.net/DTD/sodipodi-0.dtd"
   xmlns:inkscape="http://www.inkscape.org/namespaces/inkscape"
   enable-background="new 45.6 168.9 504 504"
   id="Layer_1"
   version="1.1"
   viewBox="45.6 168.9 504 504"
   xml:space="preserve"
   inkscape:version="0.48.4 r9939"
   width="100%"
   height="100%"
   sodipodi:docname="setting.svg"><metadata
     id="metadata15"><rdf:RDF><cc:Work
         rdf:about=""><dc:format>image/svg+xml</dc:format><dc:type
           rdf:resource="http://purl.org/dc/dcmitype/StillImage" /><dc:title></dc:title></cc:Work></rdf:RDF></metadata><defs
     id="defs13" /><sodipodi:namedview
     pagecolor="#ffffff"
     bordercolor="#666666"
     borderopacity="1"
     objecttolerance="10"
     gridtolerance="10"
     guidetolerance="10"
     inkscape:pageopacity="0"
     inkscape:pageshadow="2"
     inkscape:window-width="1325"
     inkscape:window-height="744"
     id="namedview11"
     showgrid="false"
     inkscape:zoom="0.66221111"
     inkscape:cx="129.04808"
     inkscape:cy="189.25462"
     inkscape:window-x="41"
     inkscape:window-y="24"
     inkscape:window-maximized="1"
     inkscape:current-layer="g3178" /><g
     id="g3190"
     transform="matrix(3.7181664,0,0,3.7181664,59.63735,227.55535)"><g
       id="g3176"
       style="fill:#ff9800;fill-opacity:1"><g
         id="g3178"
         style="fill:#ff9800;fill-opacity:1"><path
           id="path3180"
           d="m 100.773,21.57 -5.664,5.664 c -1.563,1.563 -1.563,4.086 0,5.656 1.57,1.563 4.094,1.563 5.664,0 l 5.656,-5.656 c 1.563,-1.57 1.563,-4.094 0,-5.664 -1.57,-1.562 -4.093,-1.562 -5.656,0 z m -73.539,0 c -1.57,-1.563 -4.094,-1.563 -5.664,0 -1.563,1.57 -1.563,4.094 0,5.664 l 5.664,5.656 c 1.563,1.563 4.086,1.563 5.656,0 1.563,-1.57 1.563,-4.094 0,-5.656 z M 64,4 c -2.211,0 -4,1.789 -4,4 l 0,8 c 0,2.211 1.789,4 4,4 2.211,0 4,-1.789 4,-4 L 68,8 C 68,5.789 66.211,4 64,4 z m 56,56 -8,0 c -2.211,0 -4,1.787 -4,4 0,2.211 1.789,4 4,4 l 8,0 c 2.211,0 4,-1.789 4,-4 0,-2.213 -1.789,-4 -4,-4 z M 16,60 8,60 c -2.211,0 -4,1.787 -4,4 0,2.211 1.789,4 4,4 l 8,0 c 2.211,0 4,-1.789 4,-4 0,-2.213 -1.789,-4 -4,-4 z"
           clip-rule="evenodd"
           inkscape:connector-curvature="0"
           style="fill:#ff9800;fill-opacity:0.38549617;fill-rule:evenodd"
           sodipodi:nodetypes="csccccccccccccsssssssssssssssssssss" /><path
           sodipodi:type="arc"
           style="fill:#ff9800;fill-opacity:1"
           id="path3196"
           sodipodi:cx="291.44785"
           sodipodi:cy="262.38522"
           sodipodi:rx="16.611017"
           sodipodi:ry="16.611017"
           d="m 308.05886,262.38522 a 16.611017,16.611017 0 1 1 -33.22203,0 16.611017,16.611017 0 1 1 33.22203,0 z"
           transform="matrix(0.26894977,0,0,0.26894977,-3.7753421,-15.775343)" /></g></g><path
       id="path3182"
       d="M 64,36 C 79.438,36 92,48.563 92,64 92,79.437 79.438,92 64,92 48.562,92 36,79.438 36,64 36,48.562 48.563,36 64,36 m 0,-8 c -19.883,0 -36,16.125 -36,36 0,19.883 16.117,36 36,36 19.883,0 36,-16.117 36,-36 C 100,44.125 83.883,28 64,28 l 0,0 z"
       inkscape:connector-curvature="0"
       style="fill:#ef6c00;fill-opacity:1" /></g></svg>