<?xml version="1.0" encoding="utf-8"?>
<!-- Generator: Adobe Illustrator 16.0.0, SVG Export Plug-In . SVG Version: 6.00 Build 0)  -->
<!DOCTYPE svg PUBLIC "-//W3C//DTD SVG 1.1//EN" "http://www.w3.org/Graphics/SVG/1.1/DTD/svg11.dtd">
<svg version="1.1" id="Layer_2" xmlns="http://www.w3.org/2000/svg" xmlns:xlink="http://www.w3.org/1999/xlink" x="0px" y="0px"
	 width="267.122px" height="113.561px" viewBox="0 0 267.122 113.561" enable-background="new 0 0 267.122 113.561"
	 xml:space="preserve">
<path fill="#89D3DE" d="M339.45-62.785c-0.22,0.13-0.391,0.22-0.521,0.27C339.11-62.604,339.28-62.685,339.45-62.785z"/>
<g>
	<path fill="#449096" d="M30.841,96.829l0.091-36.25c0,0,6.89-15.5,10.3-14.43c3.899,1.22,2.76,7.47,4.24,15.291
		c1.529,8.1,6.779,8.08,7.699,7.989c0,0,4.011-0.33,7.12-3.31c1.24,3.01,4.46,3.33,5.44,3.279c3.14-0.14,3.979-0.189,10.63-10.709
		c3.51-5.741,5.87-11.82,6.81-11.57c1.28,0.35,0.48,8.64,0.66,15.16c0.08,2.959-0.189,5.359,0.26,6.56
		c0.75,1.931,4.65-0.069,4.591-1.41c-0.011-0.25,0.029-4.11,0.22-9.319v-0.061c1.39-3.061,5.54-11.51,8.87-11.45
		c6.069,0.12-0.63,22.351,10.09,23.08c3.06,0.21,4.91-1.38,6.84-3.6c0.14-0.16,0.29-0.32,0.45-0.48
		c3.333,5.882,9.993,4.505,13.725,2.074c-3.609,4.466-9.958,13.336-14.25,20.636c-6.11,10.396-2.625,21.5,8.354,21.5
		c11.041,0,12.189-11.705,12.189-11.705l-0.176-29.654c5.551-7.07,16.05-20.008,17.757-22.05c6.23,7.93,7.26,10.28,11.281,14.18
		c1.479,1.43,4.779,1.19,6.459-0.671c3.439-3.84,7.221-9.099,7.221-9.099s8.209,6.87,7.72,13.78
		c-0.359,5.021-3.709,6.92-10.591,3.069c-1.108-0.619-2.6,2.24-1.85,3.391c1.391,2.13,6.391,3.34,9.91,2.52
		c0.631-0.149,1.26-0.35,1.869-0.609c0,0,0.012,0,0.021-0.01c0.039-0.021,0.08-0.03,0.119-0.051c0.031-0.01,0.07-0.029,0.109-0.05
		c0.182-0.09,0.352-0.17,0.521-0.27c0.07-0.04,0.15-0.08,0.229-0.14c0.172-0.101,0.36-0.221,0.561-0.36
		c0.07-0.04,0.131-0.091,0.201-0.15c2.299-1.63,6.681-5.8,13.148-16.05c0.149,2.939,0.541,5.88,0.961,8.46
		c1.108,6.89,4.438,9.26,7.449,9.46c6.12,0.42,13.069-8.689,15.141-11.609c0.02,5.47,0.039,9.229,0.039,9.439
		c0,0.811,0.24,2.18,2.19,2.1c2.841-0.1,2.841-3.35,2.841-3.35l0.049-14.141c0,0,8.42-9.179,9.92-3.479
		c1.131,4.261,0.75,8.37,1.291,12.39c0.199,1.49,2.449,8.57,5.91,8.771c3.52,0.21,5.278-0.89,7.149-2.58
		c2.271-2.06,9.004-10.03,9.004-10.03c0.32-5.31-3.694-4.22-3.694-4.22s-1.699,2.33-3.619,4.88c-2.43,3.2-5.359,6.61-7.609,5.73
		c-4.471-1.76,0.351-14.32-6.649-21.63c-2.631-2.75-7.642-0.28-7.642-0.28s9.57-22.52,10.67-26.24c1-3.35,0.74-7.14-1.209-10.65
		c-2.58-4.65-10.68-5.96-14.551-3.31c-4.209,2.88-4.289,11.5-4.289,11.5s0.09,20.05,0.16,35.84
		c-1.701,3.021-6.479,10.9-12.131,14.31c-4.541,2.73-5.631-5.069-5.83-6.1c-0.449-2.25-0.23-21.18-0.23-21.18v-0.03
		c5.142,0,10.591,0,10.591,0s2.08,0.12,1.881-2.53c-0.189-2.4-3.92-2.41-3.92-2.41l-8.57-0.05v-0.06c0,0-0.01-27.32-0.01-30.1
		c-0.601-1.87-4.631-1.14-5.23,1.31v12.79c0,7.62,0.01,15.97,0.01,15.97v0.06l-5.049-0.03c-0.102,0-1.83,0.03-1.83,2.18
		c0,2.33,2.56,2.83,3.261,2.85c0.18,0.01,1.6,0.01,3.6,0.01v0.02c0,0,0,3.04,0.01,7.47c-0.77,1.52-3.319,5.97-10.25,15.35
		c-0.07-0.771-0.18-1.59-0.35-2.46c-0.931-4.83-5.48-9.94-7.99-12.28c-1.101-1.03-1.199-1.76-1.26-2.99
		c-0.052-0.98-3.062-0.81-3.83-0.52c-1.261,1.32-6.17,11.46-8.972,11.521c-0.879,0.01-2.5-2.331-4.42-4.771
		c-3.139-3.99-6.739-9.03-6.739-9.03s11.852-13.09,15.131-19.34c2.188-4.17,2.83-11.02-1.521-15.62
		c-7.91-8.34-16.989,1.09-16.989,1.09s-6.672-7.66-13.981-3.59c-6.73,3.75-7.5,13.23-4.7,18.12c3.73,6.51,15.51,19.59,15.51,19.59
		s-8.021,9.971-14.435,18.005l-0.001-0.189l-0.014,0.018c0.003-0.104,0.009-0.201,0.009-0.312v-0.51c0.01-1.061,0.02-2.74,0.03-4.67
		c0.039-5.681,0.109-13.48,0.109-13.48s0.99-3.2-3.63-0.81c-1.51-0.49-8.85-1.3-14.29,5.59c-2.46,3.1-3.43,8.78-3.32,13.28
		c-0.26,0.31-0.479,0.64-0.67,0.989c-0.479,0.89-3.75,5.341-5.59,3.25c-3.38-3.84,0.92-20.91-8.89-23.09
		c-4.88-1.08-9.04,4.19-10.61,6.53c-0.14-1.21-0.3-2.39-0.46-3.49c-0.26-1.77-0.479-3.67-3.1-3.6c-3.75,0.1-7.2,8.36-11.851,15.7
		c-1.5,2.351-4.739,8.07-5.88,8c-1.79,0.246-2.245-4.229-1.665-18.129c-0.09-3.34,0.016-5.7-1.595-5.48
		c-1.61,0.22-3.771-0.37-3.79,4.94s-0.18,14.45-0.18,14.45s-1.521,4.011-5.551,4.78c-0.38-0.051-0.76-0.11-1.17-0.189
		c-5.229-0.99,0.631-24.071-11.56-24.071c-7.05,0-11.09,8.72-11.09,8.72s-2.08-9.91-9.55-7.89C13.17,42.83,6.92,53.77,6.34,54.129
		c0,0-0.25,2.229,0.66,3.13c0.92,0.91,3.061,0.03,3.061,0.03s7.97-11.74,11.979-10.59c2.82,0.8,2.931,3.29,2.95,6.21
		c0.01,2.93-0.3,7.76-0.3,7.76L10.71,89.693c0,0-7.167,17.834,8.79,19.967C31.126,111.211,30.841,96.829,30.841,96.829z
		 M228.222,15.909c0.141-3.73,3.299-8,7.229-5.24c4.56,3.19,2.261,7.82,2.261,7.82l-9.552,23.67
		C228.161,42.159,228.081,19.638,228.222,15.909z M140.591,9.659c5.79-2.9,9.4,2.27,12.011,5.18c4.682-5.87,9.319-8.96,13.871-3.4
		c4.118,5.03-2.802,13.54-2.802,13.54l-11.119,13.64c0,0-7.91-8.97-12.7-16.01C137.051,18.479,136.191,11.857,140.591,9.659z
		 M122.251,105.058c-5.245,0.266-7.284-7.419-4.875-11.875c5.542-10.25,12.887-18.781,12.89-18.783l0.235,23.459
		C130.501,97.859,129.501,104.693,122.251,105.058z M118.431,56.638c0.01-0.17,0.029-0.34,0.05-0.51
		c1.49-13.63,11.99-11.4,11.99-11.4s-0.051,5.89-0.11,10.41c-0.021,1.73-0.05,3.25-0.07,4.18c-0.01,0.25-0.08,0.511-0.22,0.791
		c-1.29,2.6-7.84,6.119-10.53,2.55C118.651,61.488,118.181,59.579,118.431,56.638z M14.544,96.359c0.021-3.971,11-26,11-26
		s0.046,25.889,0.026,27.168c-0.021,1.291-0.853,6.338-4.12,6.521C15.878,104.359,14.535,99.318,14.544,96.359z"/>
	<path fill="#449096" d="M59.87,33.406c0.308,1.402,1.015,2.414,3.133,1.974c1.426-0.296,2.326-1.702,2.02-3.104
		c-0.309-1.402-0.907-2.53-3.133-1.974C60.476,30.654,59.562,32.003,59.87,33.406z"/>
</g>
</svg>
